<svg version="1.1" viewBox="0.0 0.0 960.0 720.0" fill="none" stroke="none" stroke-linecap="square" stroke-miterlimit="10" xmlns:xlink="http://www.w3.org/1999/xlink" xmlns="http://www.w3.org/2000/svg"><clipPath id="p.0"><path d="m0 0l960.0 0l0 720.0l-960.0 0l0 -720.0z" clip-rule="nonzero"/></clipPath><g clip-path="url(#p.0)"><path fill="#000000" fill-opacity="0.0" d="m0 0l960.0 0l0 720.0l-960.0 0z" fill-rule="evenodd"/><path fill="#4a86e8" d="m89.07087 75.17637c0 7.768509 175.02493 14.066132 390.92914 14.066132c215.90417 0 390.92914 -6.2976227 390.92914 -14.066132l0 161.28506c0 7.768509 -175.02496 14.066132 -390.92914 14.066132c-215.9042 0 -390.92914 -6.2976227 -390.92914 -14.066132z" fill-rule="evenodd"/><path fill="#92b6f1" d="m89.07087 75.17637c0 -7.768509 175.02493 -14.066132 390.92914 -14.066132c215.90417 0 390.92914 6.2976227 390.92914 14.066132l0 0c0 7.768509 -175.02496 14.066132 -390.92914 14.066132c-215.9042 0 -390.92914 -6.2976227 -390.92914 -14.066132z" fill-rule="evenodd"/><path fill="#000000" fill-opacity="0.0" d="m870.92914 75.17637l0 0c0 7.768509 -175.02496 14.066132 -390.92914 14.066132c-215.9042 0 -390.92914 -6.2976227 -390.92914 -14.066132c0 -7.768509 175.02493 -14.066132 390.92914 -14.066132c215.90417 0 390.92914 6.2976227 390.92914 14.066132l0 161.28506c0 7.768509 -175.02496 14.066132 -390.92914 14.066132c-215.9042 0 -390.92914 -6.2976227 -390.92914 -14.066132l0 -161.28506" fill-rule="evenodd"/><path stroke="#000000" stroke-width="1.0" stroke-linejoin="round" stroke-linecap="butt" d="m870.92914 75.17637l0 0c0 7.768509 -175.02496 14.066132 -390.92914 14.066132c-215.9042 0 -390.92914 -6.2976227 -390.92914 -14.066132c0 -7.768509 175.02493 -14.066132 390.92914 -14.066132c215.90417 0 390.92914 6.2976227 390.92914 14.066132l0 161.28506c0 7.768509 -175.02496 14.066132 -390.92914 14.066132c-215.9042 0 -390.92914 -6.2976227 -390.92914 -14.066132l0 -161.28506" fill-rule="evenodd"/><path fill="#ffffff" d="m324.09857 184.73196l-8.296875 0l38.671875 -58.874992l8.234375 0l-38.609375 58.874992zm15.78125 -47.078125q0 2.796875 -0.796875 5.15625q-0.78125 2.34375 -2.265625 4.078125q-1.46875 1.71875 -3.625 2.6875q-2.140625 0.953125 -4.84375 0.953125q-5.296875 0 -8.234375 -3.171875q-2.9375 -3.171875 -2.9375 -9.375q0 -2.78125 0.765625 -5.140625q0.78125 -2.359375 2.25 -4.078125q1.484375 -1.7343674 3.625 -2.7031174q2.15625 -0.984375 4.859375 -0.984375q5.296875 0 8.25 3.1718674q2.953125 3.15625 2.953125 9.40625zm-7.40625 0.171875q0 -3.296875 -1.0 -4.859375q-1.0 -1.5625 -2.96875 -1.5625q-3.90625 0 -3.90625 6.421875q0 3.25 1.0 4.8125q1.0 1.546875 2.90625 1.546875q3.96875 0 3.96875 -6.359375zm28.90625 34.78125q0 2.796875 -0.796875 5.15625q-0.78125 2.34375 -2.265625 4.078125q-1.46875 1.71875 -3.625 2.6875q-2.140625 0.953125 -4.84375 0.953125q-5.296875 0 -8.234375 -3.140625q-2.9375 -3.15625 -2.9375 -9.40625q0 -2.828125 0.765625 -5.171875q0.78125 -2.359375 2.25 -4.0625q1.484375 -1.71875 3.625 -2.6875q2.15625 -0.984375 4.859375 -0.984375q5.296875 0 8.25 3.171875q2.953125 3.15625 2.953125 9.40625zm-7.40625 0.171875q0 -3.296875 -1.0 -4.859375q-1.0 -1.5625 -2.96875 -1.5625q-3.90625 0 -3.90625 6.421875q0 3.28125 1.0 4.828125q1.0 1.546875 2.90625 1.546875q3.96875 0 3.96875 -6.375zm89.57761 -15.875l-10.921875 -19.25l-10.75 19.25l-8.703125 0l15.78125 -26.625l7.75 0l16.296875 26.625l-9.453125 0zm93.53073 10.75q-0.125 1.15625 -0.1875 2.5q-0.0625 1.328125 -0.0625 2.28125q0 1.671875 0.28125 2.171875q0.296875 0.5 0.890625 0.5q1.578125 0 2.71875 -4.78125q1.15625 -4.796875 1.15625 -14.34375q0 -5.796875 -0.65625 -10.21875q-0.640625 -4.4375 -2.0625 -7.4375q-1.40625 -3.0 -3.65625 -4.546875q-2.25 -1.546875 -5.421875 -1.546875q-2.453125 0 -4.75 1.375q-2.296875 1.375 -4.3125 3.859375q-2.015625 2.484375 -3.671875 5.9375q-1.640625 3.453125 -2.828125 7.640625q-1.1875 4.1875 -1.859375 8.984375q-0.65625 4.78125 -0.65625 9.953125q0 6.171875 0.953125 10.84375q0.953125 4.65625 2.765625 7.78125q1.8125 3.125 4.375 4.703125q2.5625 1.59375 5.8125 1.59375q1.59375 0 3.15625 -0.21875q1.5625 -0.203125 3.21875 -0.671875q1.671875 -0.453125 3.453125 -1.25q1.796875 -0.78125 3.890625 -1.984375l0 7.953125q-3.125 1.671875 -6.796875 2.578125q-3.671875 0.921875 -7.546875 0.921875q-5.5 0 -9.515625 -2.03125q-4.015625 -2.015625 -6.640625 -6.0625q-2.625 -4.03125 -3.921875 -10.046875q-1.296875 -6.03125 -1.328125 -14.03125q-0.046875 -6.28125 0.828125 -12.078125q0.875 -5.796875 2.515625 -10.8125q1.65625 -5.015625 4.0 -9.109375q2.359375 -4.109375 5.3125 -7.03125q2.96875 -2.921875 6.46875 -4.5156174q3.5 -1.609375 7.40625 -1.609375q4.921875 0 8.578125 2.0q3.671875 1.9999924 6.109375 5.8749924q2.4375 3.875 3.640625 9.546875q1.21875 5.65625 1.21875 12.953125q-0.046875 7.25 -0.84375 12.4375q-0.78125 5.1875 -2.40625 8.546875q-1.625 3.34375 -4.09375 4.9375q-2.453125 1.578125 -5.78125 1.578125q-4.921875 0 -6.25 -4.796875q-1.203125 2.328125 -3.109375 3.5625q-1.890625 1.234375 -4.21875 1.234375q-1.875 0 -3.359375 -0.765625q-1.484375 -0.78125 -2.546875 -2.4375q-1.0625 -1.671875 -1.625 -4.28125q-0.5625 -2.609375 -0.5625 -6.265625q0 -2.671875 0.203125 -5.453125q0.21875 -2.796875 0.75 -5.4375q0.546875 -2.65625 1.46875 -5.0q0.921875 -2.359375 2.359375 -4.109375q1.4375 -1.75 3.453125 -2.765625q2.015625 -1.03125 4.734375 -1.03125q1.40625 0 2.765625 0.3125q1.359375 0.3125 2.1875 0.6875l6.203125 -1.328125l-2.203125 22.75zm-7.171875 -14.34375q-0.203125 -0.203125 -0.671875 -0.34375q-0.453125 -0.15625 -0.953125 -0.15625q-1.328125 0 -2.234375 1.53125q-0.890625 1.515625 -1.40625 3.8125q-0.515625 2.28125 -0.75 5.0q-0.234375 2.703125 -0.234375 5.125q0 2.25 0.109375 3.578125q0.109375 1.328125 0.3125 2.0625q0.203125 0.734375 0.46875 0.96875q0.28125 0.21875 0.578125 0.21875q0.53125 0 1.40625 -1.0q0.875 -1.0 1.84375 -3.203125l1.53125 -17.59375zm91.077576 22.625q2.25 -0.25 3.828125 -0.828125q1.59375 -0.578125 2.5625 -1.4375q0.984375 -0.859375 1.4375 -1.890625q0.46875 -1.046875 0.46875 -2.25q0 -2.375 -1.53125 -3.828125q-1.515625 -1.46875 -4.890625 -2.546875l-1.875 12.78125zm3.5 -23.375q2.796875 1.0 5.609375 2.1875q2.8125 1.1875 5.078125 2.9375q2.28125 1.75 3.6875 4.234375q1.421875 2.484375 1.421875 6.015625q0 4.046875 -1.5625 7.078125q-1.5625 3.015625 -4.3125 5.078125q-2.75 2.0625 -6.5 3.1875q-3.75 1.125 -8.171875 1.375l-1.53125 10.40625l-7.34375 0l1.5 -10.5q-5.828125 -0.375 -11.328064 -1.875l0 -9.75q2.953064 0.96875 6.218689 1.78125q3.28125 0.8125 6.40625 1.140625l2.203125 -15.078125q-2.703125 -0.921875 -5.359375 -2.109375q-2.640625 -1.1875 -4.71875 -2.90625q-2.078125 -1.734375 -3.375 -4.21875q-1.296875 -2.484375 -1.296875 -5.984375q0 -2.90625 1.125 -5.53125q1.125 -2.625 3.484375 -4.6875q2.359375 -2.0625 6.0 -3.390625q3.640625 -1.34375 8.6875 -1.59375l1.296875 -8.499992l7.328125 0l-1.296875 8.874992q2.21875 0.21875 4.359375 0.546875q2.140625 0.328125 4.109375 0.796875l0 8.953125q-2.25 -0.703125 -4.78125 -1.25q-2.515625 -0.546875 -4.96875 -0.796875l-1.96875 13.578125zm-5.375 -13.65625q-3.953125 0.421875 -5.5625 1.9375q-1.59375 1.515625 -1.59375 3.84375q0 1.875 1.40625 3.171875q1.421875 1.296875 4.125 2.328125l1.625 -11.28125z" fill-rule="nonzero"/><path fill="#6aa84f" d="m89.07087 279.35724c0 7.768524 175.02493 14.066132 390.92914 14.066132c215.90417 0 390.92914 -6.2976074 390.92914 -14.066132l0 161.28506c0 7.768524 -175.02496 14.066132 -390.92914 14.066132c-215.9042 0 -390.92914 -6.2976074 -390.92914 -14.066132z" fill-rule="evenodd"/><path fill="#a5ca95" d="m89.07087 279.35724c0 -7.7684937 175.02493 -14.066132 390.92914 -14.066132c215.90417 0 390.92914 6.297638 390.92914 14.066132l0 0c0 7.768524 -175.02496 14.066132 -390.92914 14.066132c-215.9042 0 -390.92914 -6.2976074 -390.92914 -14.066132z" fill-rule="evenodd"/><path fill="#000000" fill-opacity="0.0" d="m870.92914 279.35724l0 0c0 7.768524 -175.02496 14.066132 -390.92914 14.066132c-215.9042 0 -390.92914 -6.2976074 -390.92914 -14.066132c0 -7.7684937 175.02493 -14.066132 390.92914 -14.066132c215.90417 0 390.92914 6.297638 390.92914 14.066132l0 161.28506c0 7.768524 -175.02496 14.066132 -390.92914 14.066132c-215.9042 0 -390.92914 -6.2976074 -390.92914 -14.066132l0 -161.28506" fill-rule="evenodd"/><path stroke="#000000" stroke-width="1.0" stroke-linejoin="round" stroke-linecap="butt" d="m870.92914 279.35724l0 0c0 7.768524 -175.02496 14.066132 -390.92914 14.066132c-215.9042 0 -390.92914 -6.2976074 -390.92914 -14.066132c0 -7.7684937 175.02493 -14.066132 390.92914 -14.066132c215.90417 0 390.92914 6.297638 390.92914 14.066132l0 161.28506c0 7.768524 -175.02496 14.066132 -390.92914 14.066132c-215.9042 0 -390.92914 -6.2976074 -390.92914 -14.066132l0 -161.28506" fill-rule="evenodd"/><path fill="#ffffff" d="m343.62982 371.99097l-8.703125 0l-1.546875 -41.953125l11.796875 0l-1.546875 41.953125zm-4.375 4.875q1.34375 0 2.53125 0.5q1.1875 0.5 2.0625 1.375q0.875 0.875 1.390625 2.0625q0.515625 1.1875 0.515625 2.5625q0 1.375 -0.515625 2.5625q-0.515625 1.1875 -1.390625 2.0625q-0.875 0.875 -2.0625 1.375q-1.1875 0.5 -2.53125 0.5q-1.328125 0 -2.515625 -0.5q-1.1875 -0.5 -2.0625 -1.375q-0.875 -0.875 -1.375 -2.0625q-0.5 -1.1875 -0.5 -2.5625q0 -1.375 0.5 -2.5625q0.5 -1.1875 1.375 -2.0625q0.875 -0.875 2.0625 -1.375q1.1875 -0.5 2.515625 -0.5zm98.20261 -10.828125l-8.703125 0l1.171875 -12.875l-10.46875 7.5l-4.203125 -7.25l11.703125 -5.375l-11.703125 -5.375l4.203125 -7.25l10.46875 7.5l-1.171875 -12.875l8.703125 0l-1.203125 12.875l10.5 -7.5l4.171875 7.25l-11.671875 5.375l11.671875 5.375l-4.171875 7.25l-10.5 -7.5l1.203125 12.875zm100.95261 8.703125l-1.40625 14.171875l-8.171875 0l1.453125 -14.171875l-9.65625 0l-1.421875 14.171875l-8.171875 0l1.46875 -14.171875l-7.34375 0l0 -7.625l8.09375 0l1.203125 -11.953125l-7.078125 0l0 -7.625l7.828125 0l1.328125 -13.078125l8.171875 0l-1.328125 13.078125l9.625 0l1.328125 -13.078125l8.171875 0l-1.34375 13.078125l7.421875 0l0 7.625l-8.171875 0l-1.203125 11.953125l7.15625 0l0 7.625l-7.953125 0zm-6.15625 -19.578125l-9.625 0l-1.21875 11.953125l9.625 0l1.21875 -11.953125zm108.5307 5.328125q0 5.296875 -1.09375 9.71875q-1.078125 4.40625 -3.15625 7.953125l8.875 10.75l-12.046875 0l-2.953125 -3.578125q-2.828125 2.25 -6.296875 3.390625q-3.453125 1.140625 -7.375 1.140625q-4.328125 0 -7.703125 -1.09375q-3.375 -1.109375 -5.71875 -3.140625q-2.328064 -2.046875 -3.531189 -4.9375q-1.203125 -2.90625 -1.203125 -6.453125q0 -3.0 0.78125 -5.40625q0.796875 -2.421875 2.124939 -4.359375q1.34375 -1.9375 3.09375 -3.453125q1.75 -1.53125 3.703125 -2.8125l-0.828125 -1.125q-2.34375 -2.875 -3.609375 -5.890625q-1.265625 -3.03125 -1.265625 -5.90625q0 -2.90625 1.03125 -5.59375q1.046875 -2.6875 3.0625 -4.75q2.03125 -2.0625 4.984375 -3.3125q2.953125 -1.25 6.796875 -1.25q3.625 0 6.453125 1.015625q2.828125 1.015625 4.78125 2.75q1.96875 1.734375 2.984375 4.0625q1.03125 2.328125 1.03125 4.953125q0 3.25 -1.09375 5.6875q-1.078125 2.4375 -2.859375 4.296875q-1.765625 1.84375 -4.03125 3.28125q-2.265625 1.4375 -4.640625 2.78125l9.15625 11.28125q0.59375 -2.125 0.875 -4.625q0.296875 -2.5 0.21875 -5.375l9.453125 0zm-32.171875 12.875q0 1.84375 0.625 3.359375q0.625 1.515625 1.765625 2.625q1.15625 1.109375 2.78125 1.71875q1.625 0.59375 3.625 0.59375q2.203125 0 4.1875 -0.65625q1.984375 -0.671875 3.609375 -2.09375l-11.96875 -14.671875q-2.078125 1.75 -3.359375 3.90625q-1.265625 2.140625 -1.265625 5.21875zm15.46875 -29.328125q0 -1.078125 -0.40625 -2.140625q-0.390625 -1.0625 -1.140625 -1.875q-0.75 -0.8125 -1.84375 -1.3125q-1.078125 -0.5 -2.484375 -0.5q-1.421875 0 -2.546875 0.53125q-1.125 0.515625 -1.90625 1.390625q-0.765625 0.875 -1.15625 2.046875q-0.390625 1.15625 -0.390625 2.453125q0 2.234375 1.078125 4.265625q1.078125 2.015625 2.953125 4.34375l0.09375 0.171875q1.578125 -0.953125 2.984375 -1.9375q1.421875 -0.984375 2.484375 -2.109375q1.0625 -1.125 1.671875 -2.421875q0.609375 -1.3125 0.609375 -2.90625z" fill-rule="nonzero"/><path fill="#ffd966" d="m89.07087 483.53812c0 7.768524 175.02493 14.066132 390.92914 14.066132c215.90417 0 390.92914 -6.2976074 390.92914 -14.066132l0 161.28506c0 7.7684937 -175.02496 14.066162 -390.92914 14.066162c-215.9042 0 -390.92914 -6.2976685 -390.92914 -14.066162z" fill-rule="evenodd"/><path fill="#ffe8a3" d="m89.07087 483.53812c0 -7.7684937 175.02493 -14.066132 390.92914 -14.066132c215.90417 0 390.92914 6.297638 390.92914 14.066132l0 0c0 7.768524 -175.02496 14.066132 -390.92914 14.066132c-215.9042 0 -390.92914 -6.2976074 -390.92914 -14.066132z" fill-rule="evenodd"/><path fill="#000000" fill-opacity="0.0" d="m870.92914 483.53812l0 0c0 7.768524 -175.02496 14.066132 -390.92914 14.066132c-215.9042 0 -390.92914 -6.2976074 -390.92914 -14.066132c0 -7.7684937 175.02493 -14.066132 390.92914 -14.066132c215.90417 0 390.92914 6.297638 390.92914 14.066132l0 161.28506c0 7.7684937 -175.02496 14.066162 -390.92914 14.066162c-215.9042 0 -390.92914 -6.2976685 -390.92914 -14.066162l0 -161.28506" fill-rule="evenodd"/><path stroke="#000000" stroke-width="1.0" stroke-linejoin="round" stroke-linecap="butt" d="m870.92914 483.53812l0 0c0 7.768524 -175.02496 14.066132 -390.92914 14.066132c-215.9042 0 -390.92914 -6.2976074 -390.92914 -14.066132c0 -7.7684937 175.02493 -14.066132 390.92914 -14.066132c215.90417 0 390.92914 6.297638 390.92914 14.066132l0 161.28506c0 7.7684937 -175.02496 14.066162 -390.92914 14.066162c-215.9042 0 -390.92914 -6.2976685 -390.92914 -14.066162l0 -161.28506" fill-rule="evenodd"/><path fill="#ffffff" d="m339.50482 584.2969q2.25 -0.25 3.828125 -0.828125q1.59375 -0.578125 2.5625 -1.4375q0.984375 -0.859375 1.4375 -1.890625q0.46875 -1.046875 0.46875 -2.25q0 -2.375 -1.53125 -3.828125q-1.515625 -1.46875 -4.890625 -2.546875l-1.875 12.78125zm3.5 -23.375q2.796875 1.0 5.609375 2.1875q2.8125 1.1875 5.078125 2.9375q2.28125 1.75 3.6875 4.234375q1.421875 2.484375 1.421875 6.015625q0 4.046875 -1.5625 7.078125q-1.5625 3.015625 -4.3125 5.078125q-2.75 2.0625 -6.5 3.1875q-3.75 1.125 -8.171875 1.375l-1.53125 10.40625l-7.34375 0l1.5 -10.5q-5.828125 -0.375 -11.328125 -1.875l0 -9.75q2.953125 0.96875 6.21875 1.78125q3.28125 0.8125 6.40625 1.140625l2.203125 -15.078125q-2.703125 -0.921875 -5.359375 -2.109375q-2.640625 -1.1875 -4.71875 -2.90625q-2.078125 -1.734375 -3.375 -4.21875q-1.296875 -2.484375 -1.296875 -5.984375q0 -2.90625 1.125 -5.53125q1.125 -2.625 3.484375 -4.6875q2.359375 -2.0625 6.0 -3.390625q3.640625 -1.34375 8.6875 -1.59375l1.296875 -8.5l7.328125 0l-1.296875 8.875q2.21875 0.21875 4.359375 0.546875q2.140625 0.328125 4.109375 0.796875l0 8.953125q-2.25 -0.703125 -4.78125 -1.25q-2.515625 -0.546875 -4.96875 -0.796875l-1.96875 13.578125zm-5.375 -13.65625q-3.953125 0.421875 -5.5625 1.9375q-1.59375 1.515625 -1.59375 3.84375q0 1.875 1.40625 3.171875q1.421875 1.296875 4.125 2.328125l1.625 -11.28125zm99.82761 22.953125l-8.703125 0l1.171875 -12.875l-10.46875 7.5l-4.203125 -7.25l11.703125 -5.375l-11.703125 -5.375l4.203125 -7.25l10.46875 7.5l-1.171875 -12.875l8.703125 0l-1.203125 12.875l10.5 -7.5l4.171875 7.25l-11.671875 5.375l11.671875 5.375l-4.171875 7.25l-10.5 -7.5l1.203125 12.875zm100.95261 8.703125l-1.40625 14.171875l-8.171875 0l1.453125 -14.171875l-9.65625 0l-1.421875 14.171875l-8.171875 0l1.46875 -14.171875l-7.34375 0l0 -7.625l8.09375 0l1.203125 -11.953125l-7.078125 0l0 -7.625l7.828125 0l1.328125 -13.078125l8.171875 0l-1.328125 13.078125l9.625 0l1.328125 -13.078125l8.171875 0l-1.34375 13.078125l7.421875 0l0 7.625l-8.171875 0l-1.203125 11.953125l7.15625 0l0 7.625l-7.953125 0zm-6.15625 -19.578125l-9.625 0l-1.21875 11.953125l9.625 0l1.21875 -11.953125zm98.6557 16.671875q-0.125 1.15625 -0.1875 2.5q-0.0625 1.328125 -0.0625 2.28125q0 1.671875 0.28125 2.171875q0.296875 0.5 0.890625 0.5q1.578125 0 2.71875 -4.78125q1.15625 -4.796875 1.15625 -14.34375q0 -5.796875 -0.65625 -10.21875q-0.640625 -4.4375 -2.0625 -7.4375q-1.40625 -3.0 -3.65625 -4.546875q-2.25 -1.546875 -5.421875 -1.546875q-2.453125 0 -4.75 1.375q-2.296875 1.375 -4.3125 3.859375q-2.015625 2.484375 -3.671875 5.9375q-1.640625 3.453125 -2.828125 7.640625q-1.1875 4.1875 -1.859375 8.984375q-0.65625 4.78125 -0.65625 9.953125q0 6.171875 0.953125 10.84375q0.953125 4.65625 2.765625 7.78125q1.8125 3.125 4.375 4.703125q2.5625 1.59375 5.8125 1.59375q1.59375 0 3.15625 -0.21875q1.5625 -0.203125 3.21875 -0.671875q1.671875 -0.453125 3.453125 -1.25q1.796875 -0.78125 3.890625 -1.984375l0 7.953125q-3.125 1.671875 -6.796875 2.578125q-3.671875 0.921875 -7.546875 0.921875q-5.5 0 -9.515625 -2.03125q-4.015625 -2.015625 -6.640625 -6.0625q-2.624939 -4.03125 -3.921814 -10.046875q-1.296875 -6.03125 -1.328125 -14.03125q-0.046875 -6.28125 0.828125 -12.078125q0.875 -5.796875 2.515625 -10.8125q1.656189 -5.015625 3.999939 -9.109375q2.359375 -4.109375 5.3125 -7.03125q2.96875 -2.921875 6.46875 -4.515625q3.5 -1.609375 7.40625 -1.609375q4.921875 0 8.578125 2.0q3.671875 2.0 6.109375 5.875q2.4375 3.875 3.640625 9.546875q1.21875 5.65625 1.21875 12.953125q-0.046875 7.25 -0.84375 12.4375q-0.78125 5.1875 -2.40625 8.546875q-1.625 3.34375 -4.09375 4.9375q-2.453125 1.578125 -5.78125 1.578125q-4.921875 0 -6.25 -4.796875q-1.203125 2.328125 -3.109375 3.5625q-1.890625 1.234375 -4.21875 1.234375q-1.875 0 -3.359375 -0.765625q-1.484375 -0.78125 -2.546875 -2.4375q-1.0625 -1.671875 -1.625 -4.28125q-0.5625 -2.609375 -0.5625 -6.265625q0 -2.671875 0.203125 -5.453125q0.21875 -2.796875 0.75 -5.4375q0.546875 -2.65625 1.46875 -5.0q0.921875 -2.359375 2.359375 -4.109375q1.4375 -1.75 3.453125 -2.765625q2.015625 -1.03125 4.734375 -1.03125q1.40625 0 2.765625 0.3125q1.359375 0.3125 2.1875 0.6875l6.203125 -1.328125l-2.203125 22.75zm-7.171875 -14.34375q-0.203125 -0.203125 -0.671875 -0.34375q-0.453125 -0.15625 -0.953125 -0.15625q-1.328125 0 -2.234375 1.53125q-0.890625 1.515625 -1.40625 3.8125q-0.515625 2.28125 -0.75 5.0q-0.234375 2.703125 -0.234375 5.125q0 2.25 0.109375 3.578125q0.109375 1.328125 0.3125 2.0625q0.203125 0.734375 0.46875 0.96875q0.28125 0.21875 0.578125 0.21875q0.53125 0 1.40625 -1.0q0.875 -1.0 1.84375 -3.203125l1.53125 -17.59375z" fill-rule="nonzero"/></g></svg>